<?xml version="1.0" encoding="UTF-8" standalone="no"?>
<svg
   xmlns:dc="http://purl.org/dc/elements/1.1/"
   xmlns:cc="http://creativecommons.org/ns#"
   xmlns:rdf="http://www.w3.org/1999/02/22-rdf-syntax-ns#"
   xmlns:svg="http://www.w3.org/2000/svg"
   xmlns="http://www.w3.org/2000/svg"
   xmlns:sodipodi="http://sodipodi.sourceforge.net/DTD/sodipodi-0.dtd"
   xmlns:inkscape="http://www.inkscape.org/namespaces/inkscape"
   width="123mm"
   height="42mm"
   viewBox="0 0 123 42"
   version="1.1"
   id="svg8"
   inkscape:version="1.0 (4035a4fb49, 2020-05-01)"
   sodipodi:docname="gora.svg">
  <defs
     id="defs2" />
  <sodipodi:namedview
     width="45mm"
     units="mm"
     id="base"
     pagecolor="#ffffff"
     bordercolor="#666666"
     borderopacity="1.0"
     inkscape:pageopacity="0.0"
     inkscape:pageshadow="2"
     inkscape:zoom="0.98994949"
     inkscape:cx="566.01044"
     inkscape:cy="76.230066"
     inkscape:document-units="mm"
     inkscape:current-layer="layer1"
     inkscape:document-rotation="0"
     showgrid="false"
     inkscape:snap-grids="true"
     inkscape:snap-to-guides="true"
     inkscape:window-width="1920"
     inkscape:window-height="1017"
     inkscape:window-x="1912"
     inkscape:window-y="-8"
     inkscape:window-maximized="1" />
  <metadata
     id="metadata5">
    <rdf:RDF>
      <cc:Work
         rdf:about="">
        <dc:format>image/svg+xml</dc:format>
        <dc:type
           rdf:resource="http://purl.org/dc/dcmitype/StillImage" />
        <dc:title></dc:title>
      </cc:Work>
    </rdf:RDF>
  </metadata>
  <g
     inkscape:label="Warstwa 1"
     inkscape:groupmode="layer"
     id="layer1">
    <path
       id="path22"
       style="fill:#2d2929;fill-opacity:1;fill-rule:nonzero;stroke:none;stroke-width:0.0366475"
       d="M 121.18104,40.072324 H 2.4507277 c 0,0 0.5179675,-0.66675 1.2030871,-1.580445 0.7462379,-0.998361 1.690267,-2.293055 2.3718042,-3.337278 1.3020094,-2.003778 3.9288704,-3.277305 4.674937,-3.915833 0.483457,-0.416278 1.389724,-1.11125 2.246309,-1.703917 0.456693,-0.3175 0.894503,-0.60325 1.252594,-0.800806 0.361555,-0.201083 0.936457,-0.66675 1.541739,-1.213555 0.0037,-0.0035 0.0037,-0.0035 0.0037,-0.0035 1.126961,-1.019528 2.364251,-2.321278 2.531837,-2.734028 0.262648,-0.638528 0.449117,-1.224139 1.043092,-1.636889 0.235999,-0.165806 0.460538,-0.363361 0.715572,-0.564445 0.380705,-0.296333 0.837702,-0.596194 1.519125,-0.783166 1.138231,-0.310445 1.416183,0.172861 2.310839,1.188861 0.890924,1.019528 4.077421,1.728611 4.077421,1.728611 l 6.106424,-7.595306 9.833597,-5.259917 c 0,0 3.68522,-5.6797215 5.881885,-6.8862215 2.200472,-1.206501 3.018986,-2.226028 3.818466,-3.60539 1.37815,-0.172861 4.282925,0.913695 5.828586,2.155473 1.54566,1.241778 3.034215,3.0374166 4.282925,4.0886936 1.248711,1.054806 4.899667,2.6070279 4.899667,2.6070279 0,0 3.704255,-2.8116389 4.579875,-2.7939999 0.875621,0.01446 1.800733,0.229306 3.163655,0.896409 1.366729,0.666397 0.845164,0.666397 3.106549,2.6458329 0.799479,0.698147 1.736012,1.308453 2.672545,1.855259 1.71317,1.005416 3.426341,1.802694 4.279119,2.561166 2.341332,3.242028 4.614138,4.81189 6.213097,4.977695 0.388319,0.03881 0.73476,-0.0035 1.035516,-0.123472 1.538047,-0.620889 5.611581,-2.853972 5.611581,-2.853972 0,0 4.020239,4.279194 4.644599,4.7625 0.62055,0.483305 1.43906,0.208139 1.53804,1.153583 0.099,0.941917 1.91114,3.608917 1.91114,3.608917 0,0 0.51015,0.201083 1.25252,0.451556 0.95557,0.324555 2.29565,0.737305 3.44157,0.931333 0.14847,1.058333 1.09262,1.862667 2.05961,3.287889 0.96699,1.42875 2.23473,1.820334 3.84892,4.120445 0.019,0.02469 0.0381,0.05292 0.0533,0.07761 1.59896,2.268361 3.17508,4.293306 3.17508,4.293306" />
    <path
       id="path24"
       style="fill:#ffffff;fill-opacity:1;fill-rule:nonzero;stroke:none;stroke-width:0.0366475"
       d="m 81.342598,33.169873 c 0.806713,-1.16205 1.278406,-1.426633 1.824717,-1.725789 0.546311,-0.298802 1.216351,-0.667102 1.601624,-1.288344 0.384511,-0.621242 0.980314,-1.840442 0.980314,-1.840442 l -2.439555,1.645003 -1.719261,1.782939 -0.247839,1.426633" />
    <path
       id="path26"
       style="fill:#ffffff;fill-opacity:1;fill-rule:nonzero;stroke:none;stroke-width:0.0366475"
       d="m 89.672413,21.453417 c -0.298092,0.207081 -1.322187,-0.707672 -2.272045,-2.13995 0.577529,0.379589 2.569756,1.93287 2.272045,2.13995 z M 85.65027,19.132492 c -0.09327,-0.07761 -0.354056,0.180975 -0.87524,0.112183 -0.521565,-0.06914 -1.899716,-2.398536 -1.955298,-2.415822 0,0 1.955298,1.552928 2.104153,1.5875 0.148856,0.03457 0.782348,-0.08608 0.949477,-0.05186 0.167891,0.03457 1.787789,2.640189 1.787789,2.640189 0,0 -1.91799,-1.794581 -2.010881,-1.872192 z m -2.308973,2.993672 -0.447328,0.276225 -1.843371,-3.537303 1.862406,2.156884 h 1.080059 c 0,0 0.781967,3.226506 0.781967,3.278364 0,0.05186 -1.433733,-2.17417 -1.433733,-2.17417 z m -5.735694,-3.520017 c 0,-0.465666 0.484256,-2.053166 0.391364,-2.743552 0.260402,0.897113 0.33502,2.346677 0.409257,2.674761 0.07462,0.32773 1.340842,2.018594 1.378151,3.865033 -0.651766,-1.535994 -2.178772,-3.330222 -2.178772,-3.796242 z m -1.619898,12.28584 c -0.167891,0.828322 -0.111927,2.277886 -0.111927,2.277886 0,0 -1.061404,-1.639358 -0.465602,-2.812697 0.596184,-1.173339 0.931204,-1.484136 0.949858,-1.92405 0.01866,-0.439914 -1.117368,-3.18382 -1.098713,-4.736748 0.54022,1.518709 2.737646,5.038726 2.737646,5.038726 0,0 -1.843752,1.328561 -2.011262,2.156883 z m 0.228804,-11.480801 c -0.123349,-0.413808 -0.930062,-1.598789 -0.520804,-2.38125 -0.111547,0.563739 0.794911,1.944511 1.092622,2.254956 0.298091,0.310797 -0.719912,1.518356 -0.695167,1.829153 0.02475,0.310444 1.228914,2.875844 1.228914,2.875844 0,0 -2.271663,-2.105025 -2.209608,-2.703336 0.06205,-0.598311 1.227772,-1.461205 1.104043,-1.875367 z m 16.394658,0.951442 c -1.598959,-0.165805 -3.871765,-1.735667 -6.213097,-4.977695 -0.852778,-0.758472 -2.565949,-1.55575 -4.279119,-2.561166 v 0.0035 l 1.819768,3.224389 c 0,0 -3.966941,-3.848453 -4.72835,-4.018139 -0.300757,0.913695 -0.262686,2.084917 -0.262686,2.084917 0,0 0.67004,0.384528 0.91369,1.55575 0.239844,1.171222 0.875621,2.363611 0.875621,2.363611 0,0 -0.932726,-0.829027 -1.138307,-1.760361 -0.201773,-0.931333 -1.732205,-1.9685 -1.766469,-2.518833 -0.03807,-0.553861 0.46446,-2.159 0.239844,-2.76225 -0.220808,-0.60325 -1.263939,-2.5011949 -4.823526,-2.8469169 -0.966989,0.430389 -2.531685,1.379361 -3.59385,2.0708049 -1.058359,0.691445 -1.861645,1.672167 -2.455544,2.328334 -0.597706,0.656167 -0.784252,1.17475 -1.378151,1.485194 -0.597706,0.310445 -4.617945,1.950862 -5.10144,2.243667 -0.487302,0.292806 -1.024095,1.605139 -1.583731,2.173111 -0.559635,0.567973 -1.37815,0.518584 -1.454291,0.793751 -0.07233,0.275166 -1.096429,1.414638 -1.412413,2.416527 -0.319792,1.001889 -0.578671,1.855612 -1.640837,2.127251 -1.062165,0.271638 -2.805792,2.469444 -3.114163,3.009194 1.812154,-1.037167 3.076093,-1.058333 3.647149,-1.749778 0.571057,-0.687916 1.191606,-1.608666 1.317238,-2.345972 0.125633,-0.737306 1.016481,-2.670528 2.68016,-3.153834 v 1.933223 c 0,0 1.317237,-4.162425 1.812153,-4.670778 0.498723,-0.504473 5.090019,-2.137481 5.090019,-2.137481 0,0 -1.035516,2.109258 -3.525323,3.149953 3.551973,-0.733778 3.624306,-1.700389 4.195363,-2.966861 0.571057,-1.266473 0.597706,-1.404056 1.294396,-1.862667 0.692882,-0.462139 0.494915,-1.150056 0.94034,-1.520472 0.449231,-0.366889 2.855283,-1.9790839 3.749939,-2.2083889 l -0.171317,0.9560269 c 0,0 0.719531,0.356306 0.818515,0.656167 0.09898,0.299861 0.323598,0.687917 1.065972,1.195917 0.723339,0.490361 1.30201,3.411361 1.336273,3.591278 l -1.583731,-2.649361 -0.620548,0.807861 -0.890849,-2.12725 c 0.04949,0.257527 0.868007,4.406194 1.256325,5.058833 -0.09137,-0.116416 -0.803286,-1.044222 -1.012674,-1.0795 -0.220808,-0.03528 -0.2703,0.560917 -0.521565,0.585964 -0.247458,0.02081 -0.593899,-0.391936 -0.692882,-1.358547 -0.09518,-0.927806 -1.012674,-1.68275 -1.088815,-1.74625 0.03046,0.08114 0.590092,1.449916 0.5406,2.25425 -0.04949,0.8255 -0.197966,1.125361 -0.04949,1.471083 0.148475,0.345722 0.719531,0.183445 0.845164,0.575028 0.121825,0.381 2.128138,6.607528 2.253771,6.999112 -0.159896,-0.257528 -1.964436,-3.203223 -2.154788,-3.203223 -0.197966,0 -1.065973,1.266472 -1.065973,1.520473 0,0.250472 0.719532,0.433916 0.742374,0.871361 0.02665,0.437444 -0.296949,1.358194 -0.296949,1.887361 0,0.511528 1.119271,2.991556 1.187798,3.146778 -0.10279,-0.127 -1.450484,-1.845028 -1.857838,-3.284361 -0.422582,-1.495778 -1.142114,-1.862667 -1.168763,-2.575278 -0.02284,-0.716139 -0.09898,-0.966612 -0.571057,-1.68275 -0.468266,-0.712612 -0.814707,-1.287639 -0.814707,-1.883834 -0.376898,1.150056 0.319791,2.275417 0.395932,2.737556 0.07233,0.458611 -0.666233,0.92075 -0.395932,1.654528 0.2703,0.737305 0.666232,0.264583 0.94034,1.502833 0.274107,1.234722 -0.224616,1.996722 -0.148475,3.305528 0.07614,1.312334 0.395933,2.878667 1.614187,3.591278 l 0.791865,2.021417 c -0.05711,-0.09172 -0.982217,-1.541639 -1.461905,-1.654528 -0.498723,-0.112889 -1.511397,-0.504472 -1.736012,-1.266472 -0.224616,-0.758473 -0.647198,-1.975556 -1.317238,-2.804584 0.742374,2.391834 0.346441,3.612445 0.643391,4.279195 0.296949,0.66675 1.218254,0.529167 1.218254,0.529167 0,0 -0.125632,1.266472 0.346441,1.770944 0.472074,0.504472 0.719532,0.458611 0.719532,0.458611 0,0 -0.373091,0.762 0.197966,1.795639 0.571057,1.037167 0.845164,2.25425 0.845164,2.25425 0,0 0.09898,-1.562805 0.620548,-2.070805 0.521565,-0.504472 1.591345,-1.195917 1.960628,-2.391834 0.373091,-1.195916 0.251265,-1.562805 -0.197966,-1.703916 -0.445424,-0.137584 -0.917498,-1.354667 -0.894655,-2.413001 0.74618,1.74625 1.44287,2.137834 2.360367,2.458862 l -0.445424,4.120444 c 0,0 0.719532,-1.287639 1.362922,-2.116666 0.647198,-0.829028 0.67004,-1.333501 1.317238,-1.541639 0.64339,-0.208139 1.214447,-0.483306 1.214447,-0.483306 0,0 0.323599,0.92075 0.944147,0.941917 0,0 1.062166,0.07055 1.115465,-0.01058 0.04949,-0.08114 0.285528,-0.490361 0.285528,-0.490361 0,0 -0.681461,-1.132417 -0.730953,-2.6035 -0.04949,-1.471083 0.69669,-2.024945 -0.917498,-3.887611 1.267746,0.458611 1.911137,2.070805 1.937786,2.921 0.02284,0.850194 0.658619,1.562806 0.658619,1.562806 l 1.614187,-1.562806 c 0,0 -1.081201,-1.104195 -1.553274,-2.483556 -0.449231,-1.315861 -0.784251,-2.413 -0.814708,-2.518833 0.08375,0.134055 1.431449,2.303639 2.082454,2.815167 0.67004,0.529166 1.229675,0.292805 1.819767,1.033638 l 0.582478,-0.4445 c 0,0 -1.412413,-3.785305 -1.336273,-3.785305 0.07614,0 2.383211,1.883833 2.383211,1.883833 0,0 0.434003,-2.0955 1.743626,-2.772833 1.313431,-0.677334 4.713122,-3.171473 4.713122,-3.171473 l -0.06853,-0.34925" />
    <path
       id="path28"
       style="fill:#ffffff;fill-opacity:1;fill-rule:nonzero;stroke:none;stroke-width:0.0366475"
       d="m 41.964428,30.305318 c 2.38321,-0.58667 5.350421,-1.80587 5.84686,-2.289175 0.496819,-0.483306 1.408226,-2.024592 2.442219,-2.691695 1.033994,-0.667456 4.401325,-2.083859 4.401325,-2.083859 l 0.307229,-1.04528 c 0,0 -3.383702,1.77165 -4.708554,2.369608 -1.324851,0.598311 -2.566329,2.530828 -3.236369,3.083278 -0.670801,0.552098 -5.05271,2.657123 -5.05271,2.657123" />
    <path
       id="path30"
       style="fill:#ffffff;fill-opacity:1;fill-rule:nonzero;stroke:none;stroke-width:0.0366475"
       d="m 61.938851,12.221575 c 0,0 -1.402896,-1.552928 -1.936644,-1.77165 -0.533747,-0.21837 -1.21635,-0.03457 -1.37815,-0.230011 -0.161419,-0.195439 -0.806713,-1.1616979 -1.427642,-2.9104169 0,0 1.440205,1.875367 1.700988,2.220383 0.260783,0.345017 0.819276,-0.195439 1.37777,0.345017 0.558874,0.5404559 1.663678,2.3466779 1.663678,2.3466779 z m 2.315064,-4.2001729 c 0,0 -0.07424,1.335617 0.70773,2.8197529 -1.452388,-1.5010689 -2.18829,-4.0791689 -2.18829,-4.0791689 L 59.747516,3.9563445 c 0,0 -0.0061,3.0772806 0.894275,4.5381326 -1.732205,-1.777294 -1.37815,-2.9506326 -1.415459,-3.4685106 -0.03731,-0.517525 -1.582589,-1.915231 -1.582589,-1.915231 0,0 0.372329,1.397706 0.726004,1.880659 -0.819277,-1.104195 -2.303643,-3.236031 -4.264272,-2.932995 -0.3354,0.05151 0,0.741892 0.279438,1.017764 0.279056,0.276225 0.633111,0.638528 0.670039,1.121481 0.03731,0.483305 0.70773,1.46685 0.70773,1.46685 0,0 -0.819276,-0.690033 -1.116987,-1.242131 -0.298092,-0.55245 -0.987167,-1.311628 -1.247949,-1.156405 -0.260783,0.155222 -2.010881,1.311627 -2.551101,1.501422 -0.539839,0.189794 -3.351723,2.2613056 -3.351723,2.2613056 0,0 -2.607064,4.3818529 -2.681682,5.0376669 -0.07424,0.655814 -1.936263,2.605616 -2.476483,3.330222 -0.539839,0.724606 -1.191986,2.5019 -1.601243,3.451225 -0.410019,0.948973 -2.756148,4.55542 -2.756148,4.55542 l 1.824869,-1.829153 c 0,0 0.428368,0.552097 0.614533,0.862895 0.186164,0.310444 -1.042826,2.586214 -2.02984,3.424061 -0.987015,0.837847 -6.079813,3.46075 -6.079813,3.46075 2.690819,-0.9144 6.191664,-2.122311 6.805968,-2.847269 0.614648,-0.724606 2.365089,-3.640667 2.365089,-4.141259 0,-0.500239 -0.91864,-0.724606 -0.980695,-1.345847 -0.06206,-0.621242 0.781967,-0.943328 0.856585,-1.714148 0.07424,-0.770819 1.700607,-4.313767 3.33916,-5.786261 0.2486,1.058333 0.08718,3.485444 0.08718,3.485444 0,0 1.278406,-3.750028 1.315715,-6.234642 2.141462,-2.7954109 2.886501,-2.7093329 3.649814,-3.6928779 0.763693,-0.9835436 1.527005,-1.1041936 2.25339,-1.5529266 0.726384,-0.448381 1.433733,-0.759178 1.973572,-0.58667 0.540219,0.172508 1.080058,0.811036 1.024476,1.501422 -0.05596,0.6900336 0.931203,3.0539976 0.931203,3.0539976 0,0 -0.844403,-1.046692 -1.129931,-1.552928 -0.285529,-0.506236 -0.471693,-0.172508 -0.769785,0.09208 -0.297711,0.264583 -0.856585,0.770467 -1.12955,0.747889 -0.273346,-0.02328 -0.869148,-1.541639 -1.080059,-1.518709 -0.211291,0.02293 0.01218,1.552928 0.297711,1.99002 0.285529,0.437092 0.807094,1.0929059 0.720293,1.5416389 -0.08718,0.448381 0.58324,2.35832 0.58324,2.35832 0,0 -1.054933,-1.334559 -1.328278,-2.128309 0,0 -0.521185,0.724958 -0.695167,0.736247 -0.173601,0.01129 -1.278786,-1.9325159 -1.278786,-1.9325159 0,0 0.03769,1.4724939 0.09974,1.9212269 0.06167,0.448381 0.533367,0.690034 0.595803,0.82797 0.06206,0.137936 -0.173982,1.104547 0.06206,1.575858 0.235656,0.471664 0.91864,1.886656 0.91864,1.886656 l 0.347583,-2.427111 c 0,0 2.321155,-0.06879 2.681302,0.275872 0.360146,0.34537 -0.04949,1.13912 0.360146,1.93287 0.409638,0.79375 1.392617,2.726972 0.806713,2.933347 -0.620548,0.218722 -0.757221,-0.275872 -1.390333,-1.472495 -0.496439,0.425803 -1.688424,1.610784 -1.688424,1.610784 l 0.807093,2.254603 c 0,0 -1.25404,-0.724606 -2.184863,-2.220384 -0.931203,-1.495425 -1.37777,-1.863725 -1.37777,-1.863725 0,0 0.707349,1.817864 0.930823,2.807053 0.223474,0.989542 -0.521565,2.864556 -0.521565,2.864556 l 4.692563,-1.691217 1.550229,-1.449917 2.009739,-2.22003 0.951,-1.233311 1.207975,-0.636412 -1.969384,-3.582811 2.259101,2.300817 -0.422202,-1.610431 1.812534,1.955448 1.490078,-0.712964 -2.607445,-3.8653869 c 0,0 2.855283,2.5078979 3.277485,2.7149779 0.422201,0.207081 2.098824,-0.910167 2.098824,-0.910167 L 68.198014,10.04741 64.253915,8.0214071" />
    <path
       id="path32"
       style="fill:#ffffff;fill-opacity:1;fill-rule:nonzero;stroke:none;stroke-width:0.0366475"
       d="m 23.901332,30.823195 c 2.90527,-1.79458 4.618441,-4.17583 6.182451,-6.1087 1.564315,-1.932517 4.506437,-6.039203 4.916151,-6.419145 0.409676,-0.379236 4.748223,-2.881489 4.748223,-2.881489 0,0 -1.340499,3.313289 -1.508237,4.986867 l 2.700413,-4.572706 2.122428,-3.347508 -5.599098,2.813755 c 0,0 -1.53264,1.707092 -2.091209,1.931459 -0.558875,0.224367 -0.912663,0.534811 -1.229105,1.018117 -0.316632,0.483305 -4.301542,4.336697 -4.301542,4.336697 l -5.940475,8.242653" />
    <path
       id="path34"
       style="fill:#ffffff;fill-opacity:1;fill-rule:nonzero;stroke:none;stroke-width:0.0366475"
       d="m 13.201899,29.601879 c 0,0 -2.931425,4.120444 -4.1724068,4.533194 -1.241326,0.416278 -1.5152424,1.128889 -5.0635302,4.762501 L 3.6538148,38.491879 c 0.7462379,-0.998361 1.6902671,-2.293055 2.3718042,-3.337278 1.3020094,-2.003778 3.9288704,-3.277305 4.674937,-3.915833 0.483457,-0.416278 1.389724,-1.11125 2.246309,-1.703917 l 0.255034,0.06703" />
    <path
       id="path36"
       style="fill:#ffffff;fill-opacity:1;fill-rule:nonzero;stroke:none;stroke-width:0.0366475"
       d="m 26.930179,24.715906 c 0,0 -2.120638,3.023306 -3.228412,4.310945 -1.104195,1.291167 -3.076131,2.268361 -4.381947,2.751667 -1.302009,0.483305 -3.597543,1.792111 -3.597543,1.792111 0,0 0.978258,-1.181806 1.846302,-1.943806 0.871737,-0.758472 1.690252,-0.79375 1.914944,-0.941916 0.220847,-0.148167 0.247458,-0.299862 0.517682,-0.737306 0.270376,-0.437445 0.338903,-0.769056 0.39974,-1.160639 0.06099,-0.391583 1.564771,-1.598083 1.87318,-2.046111 0.31214,-0.451556 0.0876,-0.726723 -0.197928,-0.878417 -0.285529,-0.155222 -1.066125,-0.28575 -1.340042,-0.458611 -0.274222,-0.172861 0.02273,-0.758472 0.285528,-1.104195 0.258765,-0.345722 0.559446,-1.04775 0.346175,-1.058333 -0.829784,-0.04586 -1.861417,1.658056 -1.960476,2.370667 -0.09887,0.712611 -1.252594,1.425222 -1.971935,1.897944 -0.723453,0.472723 -1.678945,2.208389 -2.174013,2.839862 -0.498647,0.635 -0.806903,1.866194 -1.340042,2.0955 -0.532986,0.229305 -1.328621,1.322917 -1.602842,1.862667 -0.273917,0.53975 -0.559445,1.255889 -2.6952736,1.439333 0.7157626,-0.134056 1.9148296,-1.075972 2.1166406,-1.531056 0.205505,-0.455083 0.970949,-1.859139 1.461982,-2.169583 0.491223,-0.310445 0.867892,-1.121834 1.408454,-2.053167 0.525563,-0.903111 1.096619,-2.38125 1.130845,-2.472972 0.0037,-0.0035 0.0037,-0.0035 0.0037,-0.0035 1.126961,-1.019528 2.364251,-2.321278 2.531837,-2.734028 0.262648,-0.638528 0.449117,-1.224139 1.043092,-1.636889 0.235999,-0.165806 0.460538,-0.363361 0.715572,-0.564445 l 0.826395,0.01764 c 0.78033,0.366889 1.142114,-0.116416 1.537856,0 0.395857,0.112889 0.856585,2.529417 2.409898,3.379612 -1.09247,-1.262945 -1.058244,-2.564695 -1.058244,-2.564695 l 3.178882,1.30175" />
    <path
       id="path38"
       style="fill:#ffffff;fill-opacity:1;fill-rule:nonzero;stroke:none;stroke-width:0.0366475"
       d="m 17.172989,38.024449 c 2.830462,-0.667456 7.672072,-2.96792 7.994795,-3.33622 0.322837,-0.367947 2.681454,-3.870325 4.369764,-5.524148 -3.103465,1.635831 -4.891291,4.488745 -5.139511,4.94912 -0.248181,0.460022 -6.256764,3.243792 -7.225048,3.911248" />
    <path
       id="path40"
       style="fill:#ffffff;fill-opacity:1;fill-rule:nonzero;stroke:none;stroke-width:0.0366475"
       d="m 36.480342,19.494795 c 0.145315,0.193322 -0.335172,1.00083 -0.512162,1.156053 -0.176951,0.155575 -0.996227,0.362302 -1.145388,0.79375 -0.148855,0.431447 -2.513677,2.821516 -2.513677,2.821516 0,0 1.852813,-3.192639 2.24391,-3.710164 0.391136,-0.517525 1.880642,-1.122891 1.927317,-1.061155" />
    <path
       id="path42"
       style="fill:#ffffff;fill-opacity:1;fill-rule:nonzero;stroke:none;stroke-width:0.0366475"
       d="m 47.414213,15.675622 c -0.173982,1.365956 -0.37271,4.403726 -0.422201,5.036256 -0.04949,0.632178 -2.457828,1.943453 -2.805792,2.426759 -0.347584,0.483305 -1.439825,3.658305 -1.439825,3.658305 0,0 0.372329,-3.290358 0.993258,-4.095397 0.620549,-0.805392 2.308973,-1.56457 2.557192,-2.554111 0.24822,-0.989189 1.117368,-4.471812 1.117368,-4.471812" />
    <path
       id="path44"
       style="fill:#ffffff;fill-opacity:1;fill-rule:nonzero;stroke:none;stroke-width:0.0366475"
       d="m 63.788694,20.090284 c -2.38359,1.207558 -3.103883,1.541286 -3.476212,2.105025 -0.372329,0.563739 -0.260783,1.11513 -0.409638,1.592792 -0.148856,0.478013 -0.645675,1.43263 -0.633112,1.777647 0,0 -2.582319,1.484136 -3.823415,3.612445 1.241096,-1.150409 2.780665,-2.416176 3.575196,-2.714978 0.79453,-0.299156 1.415459,-1.115837 1.601243,-2.197101 0.186545,-1.081616 0.111927,-1.472847 0.385273,-1.725789 0.272965,-0.252941 2.780665,-2.450041 2.780665,-2.450041" />
    <path
       id="path46"
       style="fill:#ffffff;fill-opacity:1;fill-rule:nonzero;stroke:none;stroke-width:0.0366475"
       d="m 118.00596,35.779018 -0.31598,0.934861 c 0,0 -2.24616,-1.633361 -2.52027,-1.806222 -0.2703,-0.172861 -0.30837,-0.610306 -1.16495,-1.150056 -0.8109,-0.515055 -1.69795,-1.3335 -1.79312,-1.418167 0.0609,0.102306 0.59009,0.945445 1.30962,1.809751 0.76902,0.917222 0.96699,2.483555 0.79187,2.504722 -0.17132,0.02469 -1.00506,-0.194028 -1.37815,-0.493889 -0.36929,-0.299861 -1.72459,-2.529417 -2.31849,-2.829278 -0.59771,-0.299861 -0.93273,-0.599722 -2.02535,-2.014361 0.6472,1.541639 1.73982,2.335389 1.8388,2.589389 0.099,0.254 0,0.747889 0,0.747889 l -0.55583,-0.179917 c 0.0609,0.102306 1.05075,1.753306 1.81977,2.688167 0.79567,0.966611 0.80709,0.345722 1.49236,0.885472 0.68146,0.53975 1.37815,1.421695 1.37815,1.421695 0,0 -1.21825,-0.881945 -1.66368,-1.157111 -0.44923,-0.275167 -0.88323,-0.218723 -1.1916,-0.381 -0.31218,-0.15875 -0.47208,-0.560917 -1.15734,-1.171223 -0.68146,-0.610305 -2.052,-1.693333 -2.28423,-2.236611 -0.23604,-0.543278 -1.38957,-1.749778 -1.93779,-2.155472 -0.54821,-0.405695 -1.25632,-1.068917 -1.25632,-1.068917 0,0 0.0647,0.264583 0.43781,0.663222 0.36928,0.395111 0.12944,0.906639 0.36167,1.735667 0.217,0.772583 1.10785,1.552222 1.21825,1.643945 -0.11802,-0.08467 -1.05455,-0.797278 -1.25632,-0.991306 -0.2132,-0.204611 -0.44543,-0.04233 -0.85659,-0.60325 -0.40735,-0.560917 0.0571,-1.068917 -0.30456,-1.248834 -0.36548,-0.183444 -0.74618,-1.121833 -0.85659,-1.580444 -0.11421,-0.458611 0.54822,-1.157111 0.18274,-1.640417 -0.36167,-0.483305 -1.63703,-2.645833 -1.70175,-2.674056 -0.0647,-0.02469 0.98603,3.030362 0.98603,3.030362 0,0 -0.28934,0.448028 -0.46446,0.896055 -0.17893,0.448028 -0.18655,1.337028 -0.18655,1.337028 0,0 -0.50253,-0.913694 -0.79186,-1.157111 -0.28934,-0.239889 -0.74618,-0.102306 -1.06217,-0.215194 -0.31598,-0.112889 -2.474576,-1.827389 -2.474576,-1.827389 0,0 1.842606,2.180166 2.223316,2.441222 0.3807,0.257528 0.44923,-0.119945 0.79186,0.144639 0.34644,0.268111 0.87562,1.622778 1.38577,2.236611 0.51395,0.610306 0.18654,1.086556 0.78425,1.837972 0.5939,0.751417 0.92892,0.705556 1.35911,1.068917 0.42639,0.363361 0.25127,0.829028 0.35406,1.439334 0.099,0.589138 1.14592,1.55575 1.22587,1.629833 -0.11802,-0.04939 -1.96063,-0.85725 -2.23093,-1.075972 -0.28172,-0.225778 -0.0571,-0.553861 -0.4835,-0.896056 -0.43019,-0.345722 -1.47332,-0.917222 -2.02154,-1.520472 -0.54821,-0.60325 -0.8109,-1.49225 -0.9213,-1.940278 -0.11421,-0.448028 -0.41878,-0.525639 -0.66243,-0.889 -0.239839,-0.363361 -0.121819,-0.691445 -0.338829,-0.906639 -0.2208,-0.215195 -0.925107,-0.543278 -0.925107,-0.543278 0,0 0.658617,0.536222 0.723337,0.811389 0.0647,0.275167 -0.0343,0.483306 0.13325,0.740833 0.16751,0.261056 -0.0114,0.451556 -0.0838,0.726723 -0.0761,0.275166 0.13706,1.234722 0.13706,1.234722 0,0 -1.332467,0.169333 -1.869257,0.419806 -0.540603,0.250472 -1.267748,1.037166 -1.480943,1.019527 -0.213195,-0.01764 -1.667486,-0.906639 -1.808346,-0.871361 -0.137054,0.03528 -0.186546,0.250472 0.16751,0.620889 0.354055,0.370417 1.005059,1.30175 0.64339,1.527528 -0.361669,0.22225 -1.248711,1.337028 -1.88068,1.30175 -0.315985,-0.109361 -0.0076,-1.397 0.0076,-1.672167 0.01142,-0.278694 -0.236037,-0.462139 -0.757602,-1.368778 -0.521565,-0.910166 -0.784251,-2.751666 -0.784251,-2.751666 l 1.180184,1.291166 1.625608,-0.864305 c 0,0 -1.077394,-0.931334 -1.389571,-1.160639 -0.308371,-0.232834 -0.730953,0.458611 -1.142114,0.05644 -0.39974,-0.388055 -1.180184,-2.162528 -1.225868,-2.271889 0.09137,0.09172 1.553274,1.573389 1.637029,1.651 0.08756,0.08114 0.346441,-0.03528 0.681461,-0.116416 0.33502,-0.08114 1.34008,0.874889 1.812153,1.337028 0.472074,0.458611 2.68016,1.538111 2.68016,1.538111 0,0 -0.2703,-0.560917 -0.906077,-1.2065 -0.612934,-0.624417 -1.48094,-2.120195 -1.534239,-2.215445 l 1.511397,1.054806 0.346441,-0.899584 c -0.769023,-0.264583 -1.850224,-1.4605 -2.219507,-1.74625 -0.357862,-0.278694 -1.922558,-0.0035 -2.055804,0.01764 l 1.617994,-1.421694 c 0,0 -0.532986,-0.977195 -0.96699,-1.887362 0.06091,0 3.624307,3.231445 3.624307,3.231445 l -1.263939,-1.989667 1.427642,-1.2065 c 0,0 -1.081201,-1.3335 -0.746181,-1.485194 0.323599,-0.144639 3.312133,2.511777 3.494872,2.674055 -0.11041,-0.176389 -2.204276,-3.404305 -2.588795,-4.353278 -0.37309,-0.917222 -0.909884,-2.074333 -0.974603,-2.215444 0.114211,0.141111 1.618002,2.014361 2.737269,2.973916 -1.164957,-1.700389 -1.130697,-2.956277 -1.065977,-3.563055 0.0609,-0.610306 0.47208,-1.337028 0.14848,-1.42875 -0.3236,-0.09172 -0.74618,0.575027 -1.975861,1.104194 -1.229676,0.529167 -2.071033,0.712611 -2.421281,1.150056 -0.346441,0.437444 -1.104043,1.220611 -1.549467,1.668639 -0.449232,0.448028 -0.384512,0.680861 -0.39974,1.104194 -0.01142,0.41275 -1.770276,1.668639 -1.88068,1.74625 0.08756,-0.08819 1.557081,-1.541639 1.397185,-1.975555 -0.159896,-0.448028 0.312178,-1.104195 0.312178,-1.104195 0,0 -2.348947,1.252361 -2.756301,1.576917 -0.41116,0.321028 -1.404799,1.562806 -1.614187,2.310695 -0.209387,0.747888 -0.197966,1.876777 -0.312177,2.497666 -0.110405,0.620889 -1.203027,1.679223 -1.933979,3.520723 0.110404,-0.956028 0.67004,-2.370667 0.944147,-2.935111 0.2703,-0.564445 0.171317,-0.829028 0.182738,-1.333501 0.01523,-0.508 0.361669,-1.806222 0.70811,-2.314222 0.350249,-0.504472 0.536794,-1.2065 1.206834,-1.679222 0.67004,-0.469195 3.114163,-1.827389 3.673798,-2.173112 0.559636,-0.345722 0.947954,-0.694972 1.30201,-1.11125 0.354055,-0.41275 2.291841,-1.188861 3.129391,-1.5875 0.837549,-0.395111 1.823582,-1.379361 2.326112,-1.379361 0.502527,0 2.950456,3.076223 3.224556,3.65125 0.2703,0.575028 1.09263,1.943806 1.53805,2.705806 0.44542,0.758472 0.19797,1.262945 0.19797,1.770945 0,0.490361 1.42383,1.583972 1.51139,1.651 -0.0571,-0.08114 -0.97841,-1.379361 -0.95176,-1.778 0.0228,-0.416278 0.27411,-1.195917 -0.23604,-2.003778 -0.51014,-0.804334 -0.76902,-1.689806 -0.76902,-1.689806 0,0 0.76902,0.381 1.16496,0.691445 0.39974,0.310444 0.24746,1.160639 1.4048,2.794 1.15353,1.633361 1.46571,3.083278 1.91113,3.485444 0.44543,0.402167 0.79568,0.208139 1.78551,1.012473 0.96318,0.779639 2.27661,2.631722 2.35656,2.744611 -0.0761,-0.162278 -1.32866,-2.772834 -1.78551,-3.330222 -0.46826,-0.575028 -1.61038,-1.220612 -1.71317,-1.908528 -0.0228,-0.169334 0.0533,-0.437445 0.18655,-0.747889 0.95557,0.324555 2.29565,0.737305 3.44157,0.931333 0.14847,1.058333 1.09262,1.862667 2.05961,3.287889 0.96699,1.42875 2.23473,1.820334 3.84892,4.120445 0.019,0.02469 0.0381,0.05292 0.0533,0.07761" />
    <path
       id="path48"
       style="fill:#ffffff;fill-opacity:1;fill-rule:nonzero;stroke:none;stroke-width:0.0366475"
       d="m 89.051864,30.650334 c -0.02513,1.219553 0.07424,2.427464 -0.596183,3.198284 -0.670421,0.770467 -2.321155,1.072444 -2.526355,1.383242 -0.204819,0.310444 -0.316365,0.957791 -0.698212,1.035402 0.298092,-0.517877 -0.01865,-0.88018 0.298092,-1.199444 0.316365,-0.319264 2.411382,-0.862542 2.783711,-1.70815 0.372329,-0.845609 0.738947,-2.709334 0.738947,-2.709334" />
    <path
       id="path50"
       style="fill:#2d2929;fill-opacity:1;fill-rule:nonzero;stroke:none;stroke-width:0.0366475"
       d="M 3.5568532,39.543157 H 120.07547 c -0.61141,-0.805744 -1.57916,-2.100792 -2.54767,-3.474508 -0.024,-0.0374 -0.0324,-0.05009 -0.0407,-0.06138 -0.86763,-1.235075 -1.62447,-1.897592 -2.29222,-2.482497 -0.56763,-0.496711 -1.10328,-0.965906 -1.5746,-1.662642 -0.29695,-0.437092 -0.58742,-0.808919 -0.86838,-1.1684 -0.52423,-0.670983 -0.98831,-1.264708 -1.19085,-1.950508 -1.09833,-0.220134 -2.30021,-0.594078 -3.15528,-0.884414 -0.74656,-0.251884 -1.25784,-0.452967 -1.27954,-0.461434 -0.10698,-0.04233 -0.19721,-0.113947 -0.25926,-0.204964 -0.31485,-0.463197 -1.88944,-2.824691 -1.99642,-3.839633 -0.0267,-0.257528 -0.0579,-0.2667 -0.4359,-0.380647 -0.26345,-0.07902 -0.59086,-0.177448 -0.90075,-0.419101 -0.55659,-0.430741 -3.39512,-3.427236 -4.396376,-4.489097 -1.0812,0.586317 -3.986734,2.144536 -5.264378,2.66065 -0.395933,0.157692 -0.840595,0.213078 -1.325232,0.164395 -1.957202,-0.202848 -4.356783,-2.082448 -6.589995,-5.159728 -0.53489,-0.458964 -1.443251,-0.956381 -2.49095,-1.529645 -0.536793,-0.293864 -1.09148,-0.597606 -1.655684,-0.928511 -1.159626,-0.677334 -2.036769,-1.286934 -2.758584,-1.9177 -0.960899,-0.841375 -1.436398,-1.339498 -1.751241,-1.6689919 -0.424105,-0.4445 -0.524992,-0.549981 -1.229676,-0.893586 -1.168001,-0.5715 -2.03753,-0.821267 -2.90744,-0.835378 -0.467886,0.04763 -2.557573,1.421694 -4.208307,2.6740559 -0.168272,0.128764 -0.401263,0.156633 -0.599991,0.07197 -0.151901,-0.06491 -3.746513,-1.5994939 -5.046238,-2.6969859 -0.580574,-0.48895 -1.197316,-1.119011 -1.850224,-1.7861136 -0.785012,-0.801864 -1.596674,-1.630892 -2.421661,-2.293761 -1.316476,-1.057981 -3.800573,-2.035175 -5.104867,-2.045406 -0.83793,1.384653 -1.7619,2.390775 -3.877475,3.551061 -1.699084,0.933098 -4.678478,5.1551415 -5.683538,6.7034835 -0.04987,0.07655 -0.119921,0.140759 -0.203676,0.185561 l -9.731721,5.205237 -6.035804,7.507817 c -0.136977,0.169686 -0.368065,0.246944 -0.591576,0.198261 -0.345337,-0.07691 -3.403308,-0.783519 -4.387772,-1.910292 l -0.23124,-0.265289 c -0.726765,-0.838553 -0.826852,-0.924983 -1.474506,-0.748594 -0.594851,0.162983 -0.982523,0.423333 -1.31267,0.680508 -0.08151,0.06421 -0.162103,0.130175 -0.241366,0.194734 -0.168805,0.137936 -0.330147,0.269169 -0.496248,0.385938 -0.401986,0.2794 -0.566298,0.687917 -0.774506,1.205442 l -0.0806,0.198261 c -0.269196,0.663575 -2.016249,2.336095 -2.666416,2.924528 -0.493736,0.445911 -1.176758,1.0287 -1.650887,1.292225 -0.306619,0.168981 -0.710699,0.42792 -1.203826,0.770114 -0.785774,0.543984 -1.690404,1.229784 -2.200205,1.668287 -0.229755,0.19685 -0.572085,0.418394 -1.005593,0.6985 -1.0662768,0.690033 -2.6782942,1.732844 -3.5683432,3.10268 C 5.8113555,36.506454 4.8261493,37.853007 4.123483,38.79316 3.9160296,39.069737 3.7241887,39.323385 3.5568882,39.543165 Z M 121.18104,40.601491 H 2.4507277 c -0.2141463,0 -0.4104471,-0.111125 -0.5081515,-0.287867 -0.097853,-0.176389 -0.080305,-0.389114 0.044614,-0.550334 0.00149,-0.0014 0.5163297,-0.664633 1.1978822,-1.573389 0.6930002,-0.9271 1.6640936,-2.254602 2.3521865,-3.309055 1.0149506,-1.5621 2.7467373,-2.68217 3.8925435,-3.423709 0.381923,-0.246944 0.7120316,-0.460375 0.8833486,-0.60713 0.534928,-0.460023 1.477933,-1.175809 2.292108,-1.738842 0.531235,-0.369359 0.957738,-0.641703 1.302009,-0.831497 0.290287,-0.161573 0.813756,-0.576439 1.43537,-1.137709 1.306883,-1.182864 2.293592,-2.296936 2.399923,-2.545644 l 0.07808,-0.19297 c 0.24091,-0.598311 0.489548,-1.217083 1.156808,-1.680633 0.142194,-0.09984 0.281988,-0.214842 0.429207,-0.334787 0.08356,-0.06879 0.169527,-0.138641 0.258765,-0.209197 0.407468,-0.317147 0.928538,-0.668514 1.726837,-0.887589 1.401602,-0.382058 1.941898,0.239536 2.688726,1.101373 l 0.226785,0.26035 c 0.505614,0.578908 2.223276,1.163461 3.405973,1.462264 l 5.87743,-7.310615 c 0.04652,-0.05786 0.105265,-0.106186 0.172498,-0.142169 l 9.706822,-5.191831 c 0.560397,-0.8509 3.86377,-5.7760305 6.003329,-6.9511335 2.026491,-1.11125 2.80427,-2.016831 3.606414,-3.400425 0.0868,-0.14957797 0.245174,-0.25117797 0.426389,-0.27410797 1.673577,-0.212373 4.751954,1.05268897 6.27934,2.28000197 0.876763,0.704498 1.712028,1.557867 2.519503,2.382662 0.633873,0.647347 1.23234,1.2590636 1.773321,1.7141466 0.96166,0.812447 3.529131,1.979789 4.433304,2.378428 1.474849,-1.1049 3.784203,-2.732617 4.674671,-2.702631 1.058358,0.01693 2.081311,0.303389 3.417584,0.957086 0.846306,0.41275 1.059501,0.612423 1.552513,1.128537 0.300756,0.315383 0.756079,0.792339 1.680049,1.6005529 0.666233,0.582436 1.487793,1.152172 2.584603,1.792816 0.550118,0.322439 1.096809,0.6223 1.626369,0.911931 1.137545,0.622653 2.119763,1.160286 2.743738,1.714853 0.02931,0.02646 0.05634,0.05574 0.07919,0.08749 2.025729,2.805289 4.194983,4.579408 5.801937,4.746272 0.283625,0.02893 0.535651,7.06e-4 0.746181,-0.08361 1.485889,-0.599722 5.506127,-2.801409 5.546867,-2.823634 0.237937,-0.129822 0.540977,-0.08396 0.721427,0.108303 1.603909,1.707092 4.147399,4.3688 4.579879,4.703587 0.14124,0.110066 0.31636,0.16263 0.52004,0.224013 0.44618,0.134056 1.12079,0.336903 1.22054,1.284464 0.0563,0.538692 1.01457,2.164998 1.7303,3.236384 0.20406,0.07726 0.58476,0.218017 1.05988,0.378178 0.91369,0.310444 2.2355,0.719314 3.34906,0.90805 0.24403,0.04127 0.43134,0.224014 0.46332,0.452261 0.0826,0.589139 0.49529,1.117247 1.06673,1.848203 0.27829,0.355953 0.59352,0.759178 0.91026,1.226255 0.39441,0.582789 0.85697,0.987778 1.39186,1.456267 0.7142,0.625123 1.52358,1.333853 2.4525,2.657123 0.0164,0.02117 0.0464,0.06491 0.0697,0.103011 1.55594,2.205214 3.12748,4.226983 3.14309,4.247092 0.12526,0.160866 0.14277,0.373944 0.0449,0.550686 -0.0975,0.176742 -0.29353,0.287867 -0.50824,0.287867" />
    <path
       id="path52"
       style="fill:#2d2929;fill-opacity:1;fill-rule:nonzero;stroke:none;stroke-width:0.0366475"
       d="m 75.117699,40.433216 -0.834124,-0.722489 c 0.03693,-0.03669 3.72329,-3.693584 4.815151,-4.941712 0.731714,-0.836083 1.065592,-1.601611 1.38881,-2.341739 0.143145,-0.328083 0.278295,-0.637822 0.443521,-0.94368 0.375755,-0.696737 1.617994,-1.648884 3.081041,-2.730853 0.414968,-0.306917 0.885138,-0.65405 0.976507,-0.753534 0.08908,-0.109714 0.314462,-0.636058 0.495297,-1.059039 0.428292,-1.001536 1.014958,-2.373136 1.761519,-3.273072 0.06282,-0.07479 0.14581,-0.13335 0.240986,-0.168628 1.309624,-0.485422 2.585745,-1.452739 3.711489,-2.306108 0.90798,-0.687917 1.624846,-1.231195 2.246156,-1.447801 l 0.402024,0.990248 c -0.445424,0.155575 -1.163814,0.700264 -1.924842,1.276703 -1.09148,0.827616 -2.441077,1.850319 -3.85844,2.411589 -0.611411,0.789164 -1.132215,2.006953 -1.517107,2.906889 -0.325503,0.760941 -0.490348,1.135944 -0.680319,1.346905 -0.152282,0.169686 -0.495678,0.426156 -1.140972,0.903111 -0.926635,0.685448 -2.478005,1.831976 -2.771909,2.377017 -0.144668,0.268111 -0.271823,0.559153 -0.406212,0.867128 -0.338066,0.774347 -0.721054,1.652411 -1.560508,2.611614 -1.116606,1.27635 -4.715406,4.846109 -4.868068,4.997451" />
    <path
       id="path54"
       style="fill:#2d2929;fill-opacity:1;fill-rule:nonzero;stroke:none;stroke-width:0.0366475"
       d="m 38.944832,40.404288 -0.888564,-0.664634 9.050336,-10.387895 c 0.08109,-0.106539 2.492853,-3.214511 5.193571,-4.871156 1.801113,-1.104547 2.02687,-1.658408 2.367982,-2.496608 0.133246,-0.325967 0.283625,-0.695678 0.532605,-1.137708 0.784632,-1.394178 1.429165,-1.908176 2.111387,-2.452512 0.138958,-0.111125 0.282102,-0.225072 0.430197,-0.351014 0.269919,-0.227894 0.379943,-0.494947 0.519661,-0.832555 0.208626,-0.506236 0.469028,-1.13665 1.353024,-1.642534 1.165336,-0.66675 4.832282,-2.281767 5.613869,-2.624314 0.362811,-0.487539 1.729159,-2.26448 3.025458,-3.1492469 l 0.677273,0.8519579 c -1.319521,0.900642 -2.827873,2.98697 -2.843101,3.008136 -0.05749,0.08008 -0.137815,0.143934 -0.231849,0.185209 -0.04378,0.01905 -4.417314,1.927931 -5.64166,2.6289 -0.555448,0.317853 -0.701257,0.671689 -0.886661,1.119717 -0.161799,0.393347 -0.34606,0.839258 -0.815469,1.236486 -0.157231,0.132997 -0.30837,0.253647 -0.455703,0.371122 -0.64834,0.517172 -1.160006,0.926042 -1.843752,2.140303 -0.217763,0.385586 -0.349106,0.709083 -0.476642,1.021997 -0.43248,1.061156 -0.799479,1.77412 -2.805792,3.005314 -2.527116,1.549753 -4.892053,4.598106 -4.915276,4.628445 l -9.070894,10.41259" />
    <path
       id="path56"
       style="fill:#2d2929;fill-opacity:1;fill-rule:nonzero;stroke:none;stroke-width:0.0366475"
       d="m 21.453669,40.417693 -0.864732,-0.691444 9.683409,-10.399184 c 1.784552,-1.693686 6.516138,-6.382103 7.255238,-8.004528 0.94685,-2.078214 3.689902,-6.455129 3.806398,-6.640337 0.03426,-0.05962 1.063688,-1.825625 2.220649,-3.337984 l 0.931584,0.611717 c -1.116987,1.460147 -2.145651,3.225448 -2.15593,3.243086 -0.03731,0.05997 -2.831794,4.519084 -3.750548,6.534856 -0.974071,2.138539 -7.202168,8.057798 -7.466415,8.308623 l -9.659653,10.375195" />
    <path
       id="path58"
       style="fill:#2d2929;fill-opacity:1;fill-rule:nonzero;stroke:none;stroke-width:0.0366475"
       d="m 12.428612,40.474843 -0.740585,-0.805744 c 0.08296,-0.06526 8.316757,-6.568723 10.476074,-8.501945 2.122123,-1.899709 4.404866,-5.378451 5.26442,-6.687962 l 0.026,-0.03951 0.975556,0.549981 -0.02558,0.03951 c -0.880379,1.341261 -3.218856,4.90467 -5.447044,6.898923 -2.184863,1.956152 -10.189022,8.278636 -10.528839,8.546747" />
  </g>
</svg>
